<?xml version="1.0" encoding="UTF-8" standalone="no"?>
<!DOCTYPE svg PUBLIC "-//W3C//DTD SVG 1.1//EN"
 "http://www.w3.org/Graphics/SVG/1.1/DTD/svg11.dtd">
<!-- Generated by graphviz version 2.43.0 (0)
 -->
<!-- Title: architecture Pages: 1 -->
<svg width="878pt" height="260pt"
 viewBox="0.00 0.00 877.63 260.00" xmlns="http://www.w3.org/2000/svg" xmlns:xlink="http://www.w3.org/1999/xlink">
<g id="graph0" class="graph" transform="scale(1 1) rotate(0) translate(4 256)">
<title>architecture</title>
<polygon fill="white" stroke="transparent" points="-4,4 -4,-256 873.63,-256 873.63,4 -4,4"/>
<!-- input -->
<g id="node1" class="node">
<title>input</title>
<ellipse fill="none" stroke="black" cx="305.69" cy="-162" rx="79.09" ry="18"/>
<text text-anchor="middle" x="305.69" y="-158.3" font-family="Times,serif" font-size="14.00">mbconv3x3_e2</text>
</g>
<!-- layer_0 -->
<g id="node2" class="node">
<title>layer_0</title>
<ellipse fill="none" stroke="black" cx="413.69" cy="-90" rx="79.09" ry="18"/>
<text text-anchor="middle" x="413.69" y="-86.3" font-family="Times,serif" font-size="14.00">mbconv5x5_e2</text>
</g>
<!-- input&#45;&gt;layer_0 -->
<g id="edge1" class="edge">
<title>input&#45;&gt;layer_0</title>
<path fill="none" stroke="black" d="M331.29,-144.94C345.71,-135.32 363.91,-123.19 379.53,-112.77"/>
<polygon fill="black" stroke="black" points="381.53,-115.65 387.91,-107.19 377.65,-109.82 381.53,-115.65"/>
</g>
<!-- layer_1 -->
<g id="node3" class="node">
<title>layer_1</title>
<ellipse fill="none" stroke="black" cx="521.69" cy="-18" rx="79.09" ry="18"/>
<text text-anchor="middle" x="521.69" y="-14.3" font-family="Times,serif" font-size="14.00">mbconv3x3_e2</text>
</g>
<!-- input&#45;&gt;layer_1 -->
<g id="edge2" class="edge">
<title>input&#45;&gt;layer_1</title>
<path fill="none" stroke="black" d="M308.9,-143.96C312.47,-128.22 319.57,-105.51 332.8,-89.91 360.41,-57.36 404.42,-39.51 443.02,-29.73"/>
<polygon fill="black" stroke="black" points="444.3,-33.03 453.22,-27.3 442.68,-26.22 444.3,-33.03"/>
</g>
<!-- layer_2 -->
<g id="node4" class="node">
<title>layer_2</title>
<ellipse fill="none" stroke="black" cx="629.69" cy="-90" rx="79.09" ry="18"/>
<text text-anchor="middle" x="629.69" y="-86.3" font-family="Times,serif" font-size="14.00">mbconv5x5_e2</text>
</g>
<!-- input&#45;&gt;layer_2 -->
<g id="edge5" class="edge">
<title>input&#45;&gt;layer_2</title>
<path fill="none" stroke="black" d="M362.5,-149.38C418.43,-136.95 503.83,-117.97 562.96,-104.83"/>
<polygon fill="black" stroke="black" points="563.95,-108.2 572.95,-102.61 562.43,-101.36 563.95,-108.2"/>
</g>
<!-- layer_0&#45;&gt;layer_2 -->
<g id="edge4" class="edge">
<title>layer_0&#45;&gt;layer_2</title>
<path fill="none" stroke="black" d="M493.2,-90C508.5,-90 524.61,-90 540.2,-90"/>
<polygon fill="black" stroke="black" points="540.35,-93.5 550.35,-90 540.35,-86.5 540.35,-93.5"/>
</g>
<!-- layer_1&#45;&gt;layer_2 -->
<g id="edge3" class="edge">
<title>layer_1&#45;&gt;layer_2</title>
<path fill="none" stroke="black" d="M547.29,-35.06C561.71,-44.68 579.91,-56.81 595.53,-67.23"/>
<polygon fill="black" stroke="black" points="593.65,-70.18 603.91,-72.81 597.53,-64.35 593.65,-70.18"/>
</g>
<!-- output -->
<g id="node5" class="node">
<title>output</title>
<ellipse fill="none" stroke="black" cx="737.69" cy="-18" rx="41.69" ry="18"/>
<text text-anchor="middle" x="737.69" y="-14.3" font-family="Times,serif" font-size="14.00">output</text>
</g>
<!-- layer_2&#45;&gt;output -->
<g id="edge6" class="edge">
<title>layer_2&#45;&gt;output</title>
<path fill="none" stroke="black" d="M655.29,-72.94C670.55,-62.76 690.04,-49.76 706.24,-38.97"/>
<polygon fill="black" stroke="black" points="708.47,-41.69 714.85,-33.23 704.59,-35.86 708.47,-41.69"/>
</g>
<!-- upsample -->
<g id="node9" class="node">
<title>upsample</title>
<ellipse fill="none" stroke="black" cx="737.69" cy="-234" rx="131.88" ry="18"/>
<text text-anchor="middle" x="737.69" y="-230.3" font-family="Times,serif" font-size="14.00">Upsample + 3 x Conv 3x3</text>
</g>
<!-- output&#45;&gt;upsample -->
<g id="edge7" class="edge">
<title>output&#45;&gt;upsample</title>
<path fill="none" stroke="black" d="M737.69,-36.04C737.69,-73.61 737.69,-160.45 737.69,-205.59"/>
<polygon fill="black" stroke="black" points="734.19,-205.85 737.69,-215.85 741.19,-205.85 734.19,-205.85"/>
</g>
<!-- scale&#45;1 -->
<g id="node6" class="node">
<title>scale&#45;1</title>
<ellipse fill="none" stroke="black" cx="89.69" cy="-162" rx="83.69" ry="18"/>
<text text-anchor="middle" x="89.69" y="-158.3" font-family="Times,serif" font-size="14.00">scale=2, ch=40</text>
</g>
<!-- scale&#45;2 -->
<g id="node7" class="node">
<title>scale&#45;2</title>
<ellipse fill="none" stroke="black" cx="89.69" cy="-90" rx="83.69" ry="18"/>
<text text-anchor="middle" x="89.69" y="-86.3" font-family="Times,serif" font-size="14.00">scale=4, ch=72</text>
</g>
<!-- scale&#45;4 -->
<g id="node8" class="node">
<title>scale&#45;4</title>
<ellipse fill="none" stroke="black" cx="89.69" cy="-18" rx="89.88" ry="18"/>
<text text-anchor="middle" x="89.69" y="-14.3" font-family="Times,serif" font-size="14.00">scale=8, ch=104</text>
</g>
</g>
</svg>
